<svg xmlns="http://www.w3.org/2000/svg" viewBox="0 0 24 24" fill="#666666">
    <path d="M12 0a12 12 0 0 0-4.373 23.178c-.067-.618-.127-1.567.027-2.242.138-.607.89-3.873.89-3.873s-.227-.458-.227-1.134c0-1.06.614-1.853 1.38-1.853.65 0 .964.49.964 1.077 0 .655-.417 1.635-.633 2.544-.18.76.381 1.38 1.13 1.38 1.356 0 2.4-1.43 2.4-3.502 0-1.832-1.31-3.11-3.182-3.11-2.17 0-3.44 1.63-3.44 3.31 0 .655.252 1.356.567 1.733.063.076.072.142.054.22-.06.252-.195.796-.22.907-.035.142-.115.173-.267.104-.993-.462-1.618-1.927-1.618-3.11 0-2.523 1.832-4.84 5.28-4.84 2.77 0 4.922 1.977 4.922 4.62 0 2.757-1.74 4.976-4.15 4.976-.81 0-1.572-.42-1.833-.92l-.498 1.897c-.18.695-.666 1.562-.992 2.09A12 12 0 1 0 12 0z"/>
</svg> 